<?xml version="1.0" encoding="UTF-8"?>
<svg width="51px" height="58px" viewBox="0 0 51 58" version="1.1" xmlns="http://www.w3.org/2000/svg" xmlns:xlink="http://www.w3.org/1999/xlink">
    <!-- Generator: Sketch 42 (36781) - http://www.bohemiancoding.com/sketch -->
    <title>ampersand</title>
    <desc>Created with Sketch.</desc>
    <defs></defs>
    <g id="Page-1" stroke="none" stroke-width="1" fill="none" fill-rule="evenodd">
        <g id="ampersand" fill="#F8E81C">
            <path d="M32.016,49.101 C30.0379901,51.0330097 27.9335112,52.4819952 25.7025,53.448 C23.4714888,54.4140048 20.953014,54.897 18.147,54.897 C15.938989,54.897 13.8575098,54.5750032 11.9025,53.931 C9.94749023,53.2869968 8.25700713,52.3325063 6.831,51.0675 C5.40499287,49.8024937 4.27800414,48.2615091 3.45,46.4445 C2.62199586,44.6274909 2.208,42.5460117 2.208,40.2 C2.208,38.4519913 2.50699701,36.8535072 3.105,35.4045 C3.70300299,33.9554928 4.51949483,32.6445059 5.5545,31.4715 C6.58950518,30.2984941 7.77399333,29.2520046 9.108,28.332 C10.4420067,27.4119954 11.8219929,26.6070035 13.248,25.917 C11.9139933,24.3069919 10.7985045,22.697008 9.9015,21.087 C9.00449552,19.4769919 8.556,17.5910108 8.556,15.429 C8.556,13.7269915 8.91249644,12.1860069 9.6255,10.806 C10.3385036,9.4259931 11.292994,8.24150494 12.489,7.2525 C13.685006,6.26349505 15.0534923,5.50450265 16.5945,4.9755 C18.1355077,4.44649735 19.7339917,4.182 21.39,4.182 C23.2760094,4.182 25.0354918,4.43499747 26.6685,4.941 C28.3015082,5.44700253 29.7274939,6.19449505 30.9465,7.1835 C32.1655061,8.17250495 33.1314964,9.40299264 33.8445,10.875 C34.5575036,12.3470074 34.914,14.0489903 34.914,15.981 C34.914,18.8790145 34.0745084,21.3169901 32.3955,23.295 C30.7164916,25.2730099 28.6350124,26.9289933 26.151,28.263 L32.499,36.06 C33.0050025,35.1399954 33.3959986,34.1855049 33.672,33.1965 C33.9480014,32.2074951 34.1549993,31.2070051 34.293,30.195 L42.78,30.195 C42.5499989,32.403011 42.0440039,34.5419896 41.262,36.612 C40.4799961,38.6820103 39.3990069,40.5909913 38.019,42.339 L48.024,54 L36.018,54 L32.016,49.101 Z M18.423,32.265 C17.5489956,32.6330018 16.6980041,33.0699975 15.87,33.576 C15.0419959,34.0820025 14.3060032,34.6799965 13.662,35.37 C13.0179968,36.0600034 12.500502,36.8189959 12.1095,37.647 C11.718498,38.4750041 11.523,39.3949949 11.523,40.407 C11.523,41.2810044 11.718498,42.120496 12.1095,42.9255 C12.500502,43.730504 13.0179968,44.4204971 13.662,44.9955 C14.3060032,45.5705029 15.0534957,46.0304983 15.9045,46.3755 C16.7555043,46.7205017 17.6409954,46.893 18.561,46.893 C20.3090087,46.893 21.8384934,46.490504 23.1495,45.6855 C24.4605066,44.880496 25.6909943,43.8340064 26.841,42.546 L18.423,32.265 Z M26.358,15.429 C26.358,14.1409936 25.9095045,13.0370046 25.0125,12.117 C24.1154955,11.1969954 23.069006,10.737 21.873,10.737 C20.676994,10.737 19.6420044,11.139496 18.768,11.9445 C17.8939956,12.749504 17.457,13.7959936 17.457,15.084 C17.457,16.6480078 17.8709959,17.9819945 18.699,19.086 C19.5270041,20.1900055 20.4009954,21.3169943 21.321,22.467 C22.7010069,21.5929956 23.8854951,20.6500051 24.8745,19.638 C25.8635049,18.6259949 26.358,17.223009 26.358,15.429 Z" id="&amp;"></path>
        </g>
    </g>
</svg>