<?xml version="1.0" encoding="UTF-8"?>
<svg width="51px" height="58px" viewBox="0 0 51 58" version="1.1" xmlns="http://www.w3.org/2000/svg" xmlns:xlink="http://www.w3.org/1999/xlink">
    <!-- Generator: Sketch 42 (36781) - http://www.bohemiancoding.com/sketch -->
    <title>ampersand_right</title>
    <desc>Created with Sketch.</desc>
    <defs></defs>
    <g id="Page-1" stroke="none" stroke-width="1" fill="none" fill-rule="evenodd">
        <g id="ampersand_right" fill="#F8E81C">
            <path d="M35.9911807,45.7214376 C34.1574618,47.5125118 32.2064994,48.8557974 30.1382351,49.7513345 C28.0699708,50.6468717 25.7352126,51.0946335 23.1338904,51.0946335 C21.0869484,51.0946335 19.1573081,50.7961256 17.3449115,50.1991009 C15.5325149,49.6020761 13.9653484,48.7172134 12.6433651,47.5444862 C11.3213817,46.371759 10.276604,44.9431855 9.50900077,43.2587228 C8.74139751,41.5742601 8.35760164,39.6446197 8.35760164,37.4697439 C8.35760164,35.8492481 8.63478755,34.3673696 9.18916768,33.0240639 C9.74354781,31.6807582 10.5004786,30.4654046 11.4599826,29.3779667 C12.4194867,28.2905287 13.5175693,27.3203781 14.7542634,26.4674855 C15.9909576,25.614593 17.2702772,24.8683233 18.5922605,24.2286539 C17.3555664,22.736092 16.3214498,21.2435525 15.4898796,19.7509906 C14.6583094,18.2584288 14.2425305,16.5100254 14.2425305,14.505728 C14.2425305,12.9278768 14.5730214,11.4993033 15.2340131,10.2199646 C15.8950048,8.9406258 16.7798675,7.84254317 17.8886277,6.92568372 C18.997388,6.00882428 20.2660466,5.30519852 21.6946415,4.81478533 C23.1232365,4.32437214 24.605115,4.07916922 26.1403215,4.07916922 C27.8887511,4.07916922 29.5198836,4.31371114 31.0337678,4.78280202 C32.5476519,5.2518929 33.8696155,5.94485766 34.9996981,6.8617171 C36.1297806,7.77857655 37.0253043,8.91930316 37.686296,10.2839312 C38.3472877,11.6485592 38.6777786,13.2263866 38.6777786,15.0174609 C38.6777786,17.7040723 37.8995259,19.9642035 36.3429971,21.7979224 C34.7864682,23.6316413 32.8568279,25.1668248 30.5540181,26.4035189 L36.438947,33.6317468 C36.9080379,32.7788543 37.2705117,31.8939916 37.5263795,30.9771321 C37.7822472,30.0602727 37.9741452,29.132766 38.102079,28.1945842 L45.9699731,28.1945842 C45.7567499,30.2415262 45.2876661,32.2244716 44.5627075,34.1434797 C43.8377488,36.0624879 42.8356152,37.8322133 41.5562764,39.452709 L50.831436,50.2630675 L39.7012445,50.2630675 L35.9911807,45.7214376 Z M23.3897569,30.1135828 C22.579509,30.4547398 21.7905953,30.8598576 21.022992,31.3289485 C20.2553888,31.7980394 19.573085,32.3524112 18.9760602,32.9920806 C18.3790355,33.63175 17.8992907,34.3353757 17.5368113,35.102979 C17.174332,35.8705822 16.9930951,36.723462 16.9930951,37.6616437 C16.9930951,38.4718916 17.174332,39.2501443 17.5368113,39.9964253 C17.8992907,40.7427062 18.3790355,41.382366 18.9760602,41.9154238 C19.573085,42.4484816 20.2660498,42.8749215 21.0549753,43.1947562 C21.8439009,43.5145909 22.6647976,43.6745058 23.5176901,43.6745058 C25.1381859,43.6745058 26.5560984,43.3013709 27.7714702,42.55509 C28.986842,41.808809 30.1275687,40.8386584 31.1936843,39.6446089 L23.3897569,30.1135828 Z M30.745918,14.505728 C30.745918,13.3116785 30.3301391,12.2882228 29.4985689,11.4353303 C28.6669987,10.5824378 27.6968481,10.1559979 26.5880878,10.1559979 C25.4793275,10.1559979 24.5198379,10.5291328 23.70959,11.2754138 C22.8993421,12.0216947 22.4942242,12.9918454 22.4942242,14.1858949 C22.4942242,15.6358121 22.8780201,16.8724877 23.6456234,17.8959587 C24.4132266,18.9194297 25.2234623,19.9642074 26.0763548,21.030323 C27.3556936,20.2200751 28.4537762,19.3458734 29.3706357,18.4076917 C30.2874951,17.4695099 30.745918,16.1688684 30.745918,14.505728 Z" id="&amp;" transform="translate(29.594519, 27.586901) rotate(15.000000) translate(-29.594519, -27.586901) "></path>
        </g>
    </g>
</svg>