<?xml version="1.0" encoding="UTF-8"?>
<svg width="51px" height="58px" viewBox="0 0 51 58" version="1.1" xmlns="http://www.w3.org/2000/svg" xmlns:xlink="http://www.w3.org/1999/xlink">
    <!-- Generator: Sketch 42 (36781) - http://www.bohemiancoding.com/sketch -->
    <title>ampersand_left</title>
    <desc>Created with Sketch.</desc>
    <defs></defs>
    <g id="Page-1" stroke="none" stroke-width="1" fill="none" fill-rule="evenodd">
        <g id="ampersand_left" fill="#F8E81C">
            <path d="M27.9911807,45.7214376 C26.1574618,47.5125118 24.2064994,48.8557974 22.1382351,49.7513345 C20.0699708,50.6468717 17.7352126,51.0946335 15.1338904,51.0946335 C13.0869484,51.0946335 11.1573081,50.7961256 9.34491148,50.1991009 C7.53251491,49.6020761 5.96534844,48.7172134 4.64336505,47.5444862 C3.32138167,46.371759 2.27660402,44.9431855 1.50900077,43.2587228 C0.741397513,41.5742601 0.357601642,39.6446197 0.357601642,37.4697439 C0.357601642,35.8492481 0.634787549,34.3673696 1.18916768,33.0240639 C1.74354781,31.6807582 2.50047855,30.4654046 3.45998262,29.3779667 C4.41948669,28.2905287 5.51756932,27.3203781 6.75426345,26.4674855 C7.99095758,25.614593 9.27027715,24.8683233 10.5922605,24.2286539 C9.3555664,22.736092 8.32144975,21.2435525 7.48987956,19.7509906 C6.65830937,18.2584288 6.24253051,16.5100254 6.24253051,14.505728 C6.24253051,12.9278768 6.57302139,11.4993033 7.23401309,10.2199646 C7.89500478,8.9406258 8.77986748,7.84254317 9.88862774,6.92568372 C10.997388,6.00882428 12.2660466,5.30519852 13.6946415,4.81478533 C15.1232365,4.32437214 16.605115,4.07916922 18.1403215,4.07916922 C19.8887511,4.07916922 21.5198836,4.31371114 23.0337678,4.78280202 C24.5476519,5.2518929 25.8696155,5.94485766 26.9996981,6.8617171 C28.1297806,7.77857655 29.0253043,8.91930316 29.686296,10.2839312 C30.3472877,11.6485592 30.6777786,13.2263866 30.6777786,15.0174609 C30.6777786,17.7040723 29.8995259,19.9642035 28.3429971,21.7979224 C26.7864682,23.6316413 24.8568279,25.1668248 22.5540181,26.4035189 L28.438947,33.6317468 C28.9080379,32.7788543 29.2705117,31.8939916 29.5263795,30.9771321 C29.7822472,30.0602727 29.9741452,29.132766 30.102079,28.1945842 L37.9699731,28.1945842 C37.7567499,30.2415262 37.2876661,32.2244716 36.5627075,34.1434797 C35.8377488,36.0624879 34.8356152,37.8322133 33.5562764,39.452709 L42.831436,50.2630675 L31.7012445,50.2630675 L27.9911807,45.7214376 Z M15.3897569,30.1135828 C14.579509,30.4547398 13.7905953,30.8598576 13.022992,31.3289485 C12.2553888,31.7980394 11.573085,32.3524112 10.9760602,32.9920806 C10.3790355,33.63175 9.89929065,34.3353757 9.53681134,35.102979 C9.17433202,35.8705822 8.99309508,36.723462 8.99309508,37.6616437 C8.99309508,38.4718916 9.17433202,39.2501443 9.53681134,39.9964253 C9.89929065,40.7427062 10.3790355,41.382366 10.9760602,41.9154238 C11.573085,42.4484816 12.2660498,42.8749215 13.0549753,43.1947562 C13.8439009,43.5145909 14.6647976,43.6745058 15.5176901,43.6745058 C17.1381859,43.6745058 18.5560984,43.3013709 19.7714702,42.55509 C20.986842,41.808809 22.1275687,40.8386584 23.1936843,39.6446089 L15.3897569,30.1135828 Z M22.745918,14.505728 C22.745918,13.3116785 22.3301391,12.2882228 21.4985689,11.4353303 C20.6669987,10.5824378 19.6968481,10.1559979 18.5880878,10.1559979 C17.4793275,10.1559979 16.5198379,10.5291328 15.70959,11.2754138 C14.8993421,12.0216947 14.4942242,12.9918454 14.4942242,14.1858949 C14.4942242,15.6358121 14.8780201,16.8724877 15.6456234,17.8959587 C16.4132266,18.9194297 17.2234623,19.9642074 18.0763548,21.030323 C19.3556936,20.2200751 20.4537762,19.3458734 21.3706357,18.4076917 C22.2874951,17.4695099 22.745918,16.1688684 22.745918,14.505728 Z" id="&amp;" transform="translate(21.594519, 27.586901) rotate(-27.000000) translate(-21.594519, -27.586901) "></path>
        </g>
    </g>
</svg>