<?xml version="1.0" encoding="utf-8"?>
<!-- Generator: Adobe Illustrator 16.0.0, SVG Export Plug-In . SVG Version: 6.00 Build 0)  -->
<!DOCTYPE svg PUBLIC "-//W3C//DTD SVG 1.1//EN" "http://www.w3.org/Graphics/SVG/1.1/DTD/svg11.dtd">
<svg version="1.1" id="master-artboard" xmlns="http://www.w3.org/2000/svg" xmlns:xlink="http://www.w3.org/1999/xlink" x="0px"
	 y="0px" width="281px" height="284px" viewBox="409.5 199.5 281 284" enable-background="new 409.5 199.5 281 284"
	 xml:space="preserve">
<g id="XMLID_53_">
	<rect x="416.1" y="208.7" fill="#8FD3F9" width="267" height="266.899"/>
	<g id="XMLID_26_">
		<path id="XMLID_25_" fill="#F4E80A" d="M463.2,314.6l86.3-55.6l86.4,55.6H463.2z"/>
		<path id="XMLID_17_" fill="#F4E80A" d="M629.5,425.2h-160c-3.5,0-6.3-2.8-6.3-6.3V314.6h172.7v104.3
			C635.9,422.4,633,425.2,629.5,425.2z"/>
		<path id="XMLID_23_" fill="#BFB608" d="M463.2,314.6l86.3,55.3l86.4-55.3H463.2z"/>
		<path id="XMLID_21_" fill="#FFFFFF" d="M613.7,328.8v-58.7H485.4v58.7l64.1,41.1L613.7,328.8z"/>
		<path id="XMLID_24_" fill="#3992DB" d="M505.4,286.8H593.6v5.2H505.4V286.8z"/>
		<path id="XMLID_29_" fill="#3992DB" d="M505.4,302.9H593.6v5.2H505.4V302.9z"/>
		<path id="XMLID_36_" fill="#3992DB" d="M505.4,319H593.6v5.2H505.4V319z"/>
		<path fill="#F4E80A" d="M315.659,13.276"/>
		<path fill="#F4E80A" d="M552.937,266.468l-2.894-5.788"/>
		<path fill="#F4E80A" d="M532.681,238.979"/>
		<path fill="#BFB608" d="M17.617,95.745"/>
		<path fill="#BFB608" d="M631.063,139.149"/>
		<path fill="#BFB608" d="M633.957,253.447L633.957,253.447"/>
		<path fill="#3992DB" d="M0.255,649.872"/>
	</g>
	<path fill="#7EC6ED" d="M524,385.106L524,385.106"/>
</g>
</svg>
