<?xml version="1.0" encoding="utf-8"?>
<!-- Generator: Adobe Illustrator 19.2.1, SVG Export Plug-In . SVG Version: 6.00 Build 0)  -->
<svg version="1.1" id="Capa_1" xmlns="http://www.w3.org/2000/svg" xmlns:xlink="http://www.w3.org/1999/xlink" x="0px" y="0px"
	 viewBox="0 0 1400 980" enable-background="new 0 0 1400 980" xml:space="preserve">
<g>
	<path fill="#151D38" d="M529.4,697.6c0.5-0.7,0.2-1.4,0.1-2.1c-1.5-5.4-3.1-10.8-4.5-16.2c-0.3-1.2-0.9-1.6-2.1-1.9
		c-10.2-2.6-20.4-5.3-30.6-8c-0.5-0.1-1.1-0.3-1.6-0.5c-0.7-0.3-1-0.9-0.8-1.6c0.2-0.8,0.7-1.3,1.6-1.2c0.8,0.1,1.6,0.3,2.3,0.5
		c9.1,2.4,18.2,4.7,27.4,7.1c0.5,0.1,0.9,0.3,1.4,0.4c0.6,0.1,0.9-0.1,0.8-0.8c-0.2-0.7-0.4-1.4-0.6-2.1c-2.8-9.9-5.5-19.7-8.3-29.6
		c-0.2-0.7-0.4-1.4-0.5-2.1c0-0.7,0.4-1.2,1.1-1.4c0.7-0.2,1.3,0.1,1.6,0.7c0.2,0.5,0.4,1,0.5,1.6c1.5,5.4,3,10.8,4.5,16.2
		c0.2,0.5,0.3,1.1,0.5,1.6c0,0.1,0.2,0.2,0.4,0.3c0.1-0.1,0.2-0.2,0.2-0.4c0.1-0.2,0.1-0.5,0.1-0.7c1.6-9.4,6.6-14.7,16-16.8
		c1.2-0.3,2.4-0.4,3.5-0.6c0.8-0.1,1.1,0.2,1.2,1c1.2,8.1-3.5,17-10.9,20.5c-2,1-4.2,1.6-6.4,2.1c-2.6,0.5-2.6,0.5-1.9,2.9
		c3.2,11.6,6.5,23.2,9.7,34.9c0.9,3.2,1.8,6.5,2.7,9.7c0.3,1.2,0.9,1.6,2.2,1.5c5.6-0.4,10.8,0.8,15.7,3.5c0.8,0.5,1.4,0.4,2.2-0.1
		c3.4-2.3,7-3.9,11-4.4c1.1-0.1,1.4-1,1.8-1.7c2.7-5,6.3-9.3,10.8-12.7c22.5-16.7,54.7-4,59.6,23.7c0.2,1.3,0.4,2.5,0.4,3.8
		c0,0.3-0.1,0.7,0.3,0.8c0.4,0.1,0.5-0.2,0.7-0.4c0.3-0.4,0.5-0.8,0.8-1.2c11.9-15.9,35.9-15,46.5,1.8c1.1,1.7,2.2,2.3,4.2,2.2
		c8.4-0.1,16.8,0,25.2,0c0.6,0,1.1,0,1.7,0c0.8,0,1.2-0.3,1.2-1.1c0-0.6,0-1.1,0-1.7c0-17.2,0-34.4,0-51.6c0-0.4,0-0.8,0-1.2
		c0.1-0.9-0.3-1.5-1.2-1.7c-1.4-0.4-2.7-1-4.1-1.5c-36.4-14-62.8-45.8-70.1-84.2c-1.4-7.3-1.9-14.8-1.9-22.2c0-17.5,0-35,0-52.6
		c0-0.6,0-1.1,0-1.7c0-2.2,0-2.2-2.1-2.7c-18.6-4.5-37.3-9-55.9-13.6c-20.9-5.1-41.8-10.2-62.6-15.3c-2.9-0.7-3-0.9-2.3-3.7
		c5.3-22,10.7-43.9,16-65.9c1-4,2-8.1,2.9-12.1c0.3-1.6,1.1-2.5,2.5-3.2c17.9-9.7,35.8-19.4,53.8-29.1c1.7-0.9,2.7-2,3.3-4
		c4.4-16.1,18.7-27.1,35.3-27.4c2.7-0.1,5.4-0.1,8.2,0c1,0,1.4-0.4,1.5-1.3c0.4-3.3,1-6.6,2-9.9c4.5-15.6,13.5-27.9,26.9-37.1
		c0.6-0.4,1.8-0.8,1.7-1.4c-0.1-0.7-1.3-0.7-2-0.9c-8.6-2.5-17.2-5-25.8-7.5c-0.6-0.2-1.2-0.4-1.8-0.5c-1.1-0.3-1.6-1.1-1.2-2.2
		c0.5-1.9,1.1-3.8,1.6-5.8c0.3-1,1.1-1.3,2.1-1.1c0.5,0.1,0.9,0.3,1.4,0.4c7.5,2.2,15,4.3,22.6,6.5c0.3,0.1,0.6,0.2,0.9,0.3
		c1.1,0.5,1.7,0.1,2-1.1c1.1-4.2,2.4-8.3,3.6-12.4c2.6-9.1,5.3-18.3,7.9-27.4c0.9-3.2,1-3.2,4.1-2.4c25.8,7.5,51.6,14.9,77.4,22.4
		c5.7,1.6,11.4,3.3,17,5c2.4,0.7,2.6,1,1.9,3.4c-4.7,16.2-9.4,32.4-14.1,48.6c-0.6,1.9-0.6,2-2.4,1.9c-1.3-0.1-1.1,0.4-0.7,1.2
		c2.2,4.6,3.8,9.5,4.9,14.5c1,4.7,1.5,9.5,1.5,14.3c0,53.3,0.2,106.6-0.1,159.8c-0.2,33.4,9.7,63.4,29,90.4c1.6,2.3,3.3,4.5,5,6.7
		c1.2,1.6,1.1,1.5,2.5,0.3c3.6-3.1,7.2-6.1,10.8-9.2c31.2-26.7,62.5-53.5,93.7-80.2c7.8-6.7,16.7-8,26-3.7
		c9.2,4.2,13.8,11.8,14.1,21.9c0.1,2,0,2,2,2.8c13.7,5.2,19.6,20.9,12.9,33.9c-1,1.9-1,1.9,0.5,3.5c12.7,13.3,6.6,35.3-11.3,40
		c-34.7,9.1-69.4,18.1-104.1,27.1c-2.4,0.6-4.8,1.2-7.2,1.9c-1.1,0.3-1.2,0.5-0.2,1.3c1.5,1.2,3,2.4,4.5,3.6
		c10.5,8.2,21.4,15.7,32.5,23c0.7,0.4,1.3,0.9,2,1.3c2.5,1.6,3.5,3.9,2.9,6.8c-0.6,3-2.4,5-5.4,5.8c-0.9,0.3-1.9,0.3-2.9,0.3
		c-17.8,0-35.7,0-53.5,0.1c-17.9,0-35.8,0-53.8,0.1c-0.1,0-0.2,0-0.2,0c-2.3,0-2.3,0-2.3,2.4c0,17.8,0,35.7,0,53.5
		c0,2.4,0.3,4.8-1,7c-0.3,0.6,0,0.9,0.6,0.9c0.6,0,1.1,0,1.7,0c35.6,0,71.2,0,106.8,0c1.7,0,2.8-0.4,3.8-1.8
		c18.3-24.6,36.7-49.3,55.1-73.9c1.8-2.4,1.6-2-0.9-2.8c-4.3-1.4-8.3-3.3-11.9-6.1c-5.7-4.4-8.8-10.2-9.7-17.3
		c-0.5-4.1-0.4-8.3,0.3-12.4c0.3-1.7,0.4-1.8,1.9-1.4c6,1.6,11.5,4.3,16.1,8.6c4.3,4.1,6.6,9.2,7.4,15c0.4,3.1,0.6,6.2,0.2,9.3
		c-0.1,0.6-0.5,1.5,0.2,1.7c0.6,0.2,0.9-0.8,1.3-1.3c3.7-4.9,7.4-9.9,11.1-14.8c3.8-5.1,7.6-10.3,11.5-15.4c0.4-0.5,0.7-1.1,1.2-1.5
		c0.6-0.6,1.3-0.7,1.9-0.1c0.7,0.5,0.7,1.2,0.3,1.9c-0.3,0.5-0.7,1.1-1.1,1.6c-12,16.2-24.1,32.3-36.1,48.5
		c-0.5,0.7-1.7,1.4-1.3,2.4c0.3,0.7,1.6,0.3,2.5,0.3c13.7,0.6,27.5,1.2,41.2,1.8c5.1,0.2,10.2,0.4,15.3,0.6c1.1,0,2,0.1,2.8,1
		c0,0.3,0,0.6,0,1c-0.6,1-1.6,1.1-2.7,1c-10.4-0.4-20.8-0.9-31.2-1.3c-9.7-0.4-19.3-0.8-29-1.2c-1.2-0.1-2.1,0.2-2.8,1.3
		c-2.3,3.3-4.8,6.4-7.1,9.6c-0.2,0.3-0.5,0.6-0.7,1c-0.1,0.1-0.1,0.3-0.1,0.4c0.2,0,0.3,0.1,0.5,0.1c0.4-0.1,0.8-0.3,1.1-0.4
		c8.9-3.2,17.1-1.6,24.3,4.3c7.2,5.9,11.5,13.6,12.7,22.9c0.6,4.4,1,8.7,1.7,13.1c0.8,5.1,2.3,10.1,3.8,15.1c0.6,2.1-0.2,3-2.2,2.4
		c-9.1-2.8-18.4-4.1-27.8-4.9c-8.6-0.8-16-4.5-22.1-10.5c-5.2-5.2-8.1-11.4-7.8-18.9c0-0.3,0-0.6,0-1c0-0.1-0.1-0.3-0.2-0.4
		c-0.2-0.2-0.4,0-0.6,0.2c-0.2,0.2-0.3,0.4-0.5,0.6c-5.1,6.8-10.1,13.6-15.2,20.4c-0.3,0.4-0.8,0.7-0.5,1.2c0.3,0.4,0.9,0.2,1.3,0.2
		c5,0,10.1,0,15.1,0c0.6,0,1.3,0,1.9,0c0.8,0.1,1.3,0.6,1.4,1.4s-0.5,1.4-1.3,1.5c-0.9,0.1-1.8,0.1-2.6,0.1
		c-100.9,0-201.7,0-302.6,0c-0.7,0-1.4,0.1-2.2,0c-1.1-0.1-1.5,0.4-1.8,1.4c-0.9,3.7-2.6,7-5.1,9.9c-6.3,7.3-14.2,11.4-23.8,12.7
		c-2.9,0.4-5.7,0.4-8.6,0.4c-5.6-0.1-11.2,0.1-16.7,1.1c-2.9,0.5-5.9,0.5-8.6,1.9c-0.5,0-1,0-1.4,0c-0.8-1.3-0.6-2.5,0-3.8
		c2.8-6.6,5.2-13.4,6.5-20.5c0.1-0.4,0.2-0.8,0.2-1.2c0.3-1.8,0.3-1.9-1.6-1.9c-10.4,0-20.8,0-31.2,0c-7.6,0-15.2,0-22.8,0
		c-2,0-2.7-0.5-2.6-1.6c0.1-1,0.6-1.3,2.6-1.3c8.1,0,16.1,0,24.2,0c0.6,0,1.3,0,1.9,0c1.9,0,1.9,0,2.1-1.9
		c1.1-10.2,6.2-17.8,15.2-22.7c1.5-0.8,3.2-1.5,4.9-2c1-0.3,1.4-0.6,1.1-1.8c-1-3.1-1.8-6.3-2.6-9.5c-0.3-1.2-0.8-1.3-1.8-0.7
		c-2.7,1.5-5.6,2.4-8.6,2.9c-3.6,0.6-7,0.1-10.3-1.5c-3.9-1.9-6.9-4.9-9.4-8.3c-0.5-0.7-0.8-1.3,0.2-1.9c4.2-2.3,8.6-4,13.5-3.7
		C521.1,689.7,525.8,692.9,529.4,697.6c0-0.1,0.1-0.2,0.1-0.1C529.5,697.9,529.6,697.5,529.4,697.6z"/>
	<path fill="#FFFFFF" d="M665,422.3c0.1,0.3-0.3,0,0,0.2c0.2,0.1,0.2,0,0.1-0.1C665,422,665.2,422.5,665,422.3
		c-0.1-0.2,0-0.5-0.1-0.6c-5.6-8.3-11.2-16.5-16.8-24.7c-0.2-0.2-0.3-0.7-0.7-0.5c-0.5,0.2-0.3,0.7-0.3,1c0,6.4,0,12.8,0,19.1
		c0,1.3,0.4,1.8,1.7,2.1c4.9,1.1,9.8,2.4,14.6,3.6C663.9,422.4,664.4,422.5,665,422.3z"/>
	<path fill="#FFFFFF" d="M773,425c0-28.8,0-57.6,0-86.4c0-10.4-2.6-20.1-7.3-29.3c-0.6-1.2-1.4-1.9-2.8-2.3
		c-27.1-7.8-54.2-15.6-81.2-23.5c-1.3-0.4-2.4-0.3-3.6,0.4c-19.4,12.2-30.2,29.6-30.9,52.6c-0.5,17-0.1,34.1-0.2,51.1
		c0,1.7,0.4,3.1,1.4,4.4c6.9,10,13.7,20.1,20.6,30.1c1.3,1.9,1.7,3.5,1.1,5.7c-1.8,6.9-3.4,13.8-5.1,20.7
		c-4.6,18.9-9.2,37.7-13.8,56.6c-0.6,2.5-0.7,2.6-3,2.2c-0.9-0.1-1.2,0.1-1.2,0.9c0,1.8,0,3.7,0,5.5c0,3.5-0.4,3.1,3.1,3.1
		c40.2,0,80.5,0,120.7,0c0.5,0,1,0,1.4,0c1.2,0.1,1.4-0.4,1.3-1.6c-0.4-5.2-0.6-10.4-0.6-15.6C773,474.9,773,449.9,773,425z"/>
	<path fill="#FFFFFF" d="M711.5,531.7c-20.5,0-40.9,0-61.4,0c-0.6,0-1.3,0-1.9,0c-0.8,0-1.1,0.4-1.1,1.2c0,0.5,0,1,0,1.4
		c0,9.7,0,19.4,0,29c0,6.9,0.3,13.8,1.7,20.5c7.3,36.5,27.7,63,61.1,79.4c14.5,7.1,30,10.3,46.2,10.3c15.4,0,30.7,0,46.1,0
		c0.9,0,1.7,0.2,2.6-0.1c-0.6-1-1.7-0.8-2.5-1C760.5,662,726,632,709.8,592.3c-6.6-16.2-9.9-33-10-50.5c0-0.4,0-0.8,0.1-1.2
		c0.1-0.7,0.5-1.1,1.3-1.2c0.9-0.1,1.4,0.4,1.6,1.2c0.1,0.8,0.1,1.6,0.1,2.4c0.2,16.3,3.4,32.1,9.4,47.2c1.2,3,0.8,2.7,3.6,1.3
		c21.2-10.8,42.4-21.6,63.7-32.4c1.3-0.7,3.3-1,3.7-2.3c0.3-1.1-0.7-2.7-1.2-4c-2.3-6.2-4.1-12.6-5.6-19.1c-0.4-1.9-0.4-1.9-2.5-2
		c-0.5,0-1,0-1.4,0C752.1,531.7,731.8,531.7,711.5,531.7z"/>
	<path fill="#FFFFFF" d="M854.7,673.5c9.5,0,19,0,28.5,0c0.6,0,1.1,0,1.7,0c1.7-0.2,3.3-1.6,3.7-3.3c0.4-1.7,0-2.8-1.8-4
		c-1-0.7-2-1.3-3-2c-16.1-10.5-31.7-21.7-46.1-34.4c-15.9-14.1-30-29.6-41.3-47.7c-1.7-2.7-0.9-2.6-3.9-1.1
		c-16.9,8.6-33.8,17.2-50.6,25.8c-5.1,2.6-10.1,5.2-15.2,7.7c-0.9,0.4-1.3,0.9-0.5,1.8c0.3,0.4,0.6,0.8,0.8,1.2
		c11.8,16.6,26.6,30,44.5,39.8c17.6,9.7,36.4,15.2,56.4,16.2C836.8,673.8,845.7,673.4,854.7,673.5z"/>
	<path fill="#FFFFFF" d="M971.8,550.6c0-2-0.3-3.9-0.9-5.7c-3.9-13.6-19.3-19.6-31.4-12.2c-18.5,11.2-37,22.5-55.5,33.7
		c-21.2,12.9-42.5,25.8-63.7,38.7c-1.8,1.1-1.8,1.1-0.5,2.7c4.7,5.2,9.7,10.2,14.8,15c1.2,1.2,2.1,1.2,3.6,0.5
		c40.3-17.8,80.7-35.6,121-53.5C967.4,566.2,971.3,559.4,971.8,550.6z"/>
	<path fill="#FFFFFF" d="M653.6,480.2c0.2,0.1,0.6-0.1,0.8-0.8c0.1-0.6,0.3-1.2,0.5-1.9c3.8-15.6,7.6-31.2,11.4-46.8
		c0.2-0.8,0.9-1.9,0.3-2.5c-0.7-0.6-1.6,0.3-2.4,0.6c-19.8,7.9-39.7,15.7-59.4,23.7c-7.9,3.2-13.6,1.1-18.3-4.5
		c-13.9-16.3-28-32.4-42.1-48.6c-0.5-0.5-0.9-1.5-1.5-1.4c-0.8,0.2-0.7,1.3-0.9,2c-3.9,15.8-7.7,31.7-11.6,47.5
		c-0.7,2.8-0.6,2.5,1.9,3.1c37.2,9.1,74.5,18.1,111.7,27.2C647.1,478.6,650.1,479.3,653.6,480.2z"/>
	<path fill="#FFFFFF" d="M950.5,526.5c3.9,0,3.9,0,3.4-3.9c0-0.2,0-0.5-0.1-0.7c-1.6-8-6-13.7-13.8-16.5c-7.7-2.8-14.8-1.4-21,4
		c-33.9,28.9-67.7,57.9-101.5,86.8c-1.2,1-2.4,2.1-3.6,3.1c-0.5,0.4-0.6,0.9-0.1,1.4c0.3,0.4,0.6,0.7,0.9,1.1
		c2.2,2.5,1.5,2.3,4.1,0.7c39.7-24.1,79.4-48.2,119.1-72.3C941.7,527.8,945.9,526.5,950.5,526.5z"/>
	<path fill="#FFFFFF" d="M976.1,579.4c0-2.9-2-7.8-5.8-11.9c-1.5-1.6-1.4-1.1-2.4-0.1c-2.4,2.5-5.2,4.2-8.3,5.6
		c-35.3,15.5-70.6,31.1-105.9,46.7c-4.6,2-9.2,4.1-13.8,6.1c-1.3,0.6-1.3,0.6-0.3,1.6c1.3,1.2,2.7,2.2,4,3.5c1.3,1.3,2.5,1.5,4.3,1
		c8.9-2.4,17.8-4.7,26.7-7c28.7-7.5,57.3-14.9,86-22.4C969.9,600,976.1,591.7,976.1,579.4z"/>
	<path fill="#FFFFFF" d="M598.2,367.6c0-2.2,0-2.2-2-1.1c-0.1,0.1-0.3,0.1-0.4,0.2c-15.7,8.5-31.3,17-47,25.5
		c-0.7,0.4-2.1,0.5-1.9,1.5c0.1,0.7,1.5,0.6,2.3,0.8c20.8,5.1,41.6,10.1,62.4,15.2c10.1,2.5,20.2,4.9,30.3,7.4
		c2.1,0.5,2.2,0.5,2.2-1.6c0-7.7,0-15.3,0-23c0-2.6-1.8-4.8-4.4-5.5c-8-2.1-13.5-7-16.7-14.5c-0.6-1.4-1.3-1.9-2.8-1.9
		c-6.2,0.1-12.3,0-18.5,0c-0.6,0-1.3,0-1.9,0c-0.9,0-1.5-0.5-1.5-1.5C598.2,368.6,598.2,368.1,598.2,367.6z"/>
	<path fill="#FFFFFF" d="M598.2,451.2c1.3,0.1,2.8-0.5,4.3-1.1c19.5-7.8,39-15.6,58.5-23.4c0.8-0.3,2.2-0.4,2.1-1.2
		c0-0.7-1.4-0.6-2.2-0.8c-34-8.3-68-16.5-102-24.8c-3.8-0.9-7.6-1.8-11.4-2.7c-0.3-0.1-0.6-0.3-0.8,0c-0.1,0.1,0.1,0.4,0.3,0.6
		c0.3,0.4,0.7,0.9,1.1,1.3c8.7,10,17.3,19.9,26,29.9c5.3,6.2,10.7,12.3,16,18.5C592.1,449.9,594.7,451.2,598.2,451.2z"/>
	<path fill="#ACDCF6" d="M690.2,230.8c-1-0.1-1.1,0.6-1.2,1.2c-1.8,6.2-3.5,12.4-5.4,18.6c-0.4,1.3,0.1,1.7,1.2,2
		c4.5,1.2,8.9,2.6,13.3,3.8c25.8,7.5,51.5,14.9,77.3,22.4c2.2,0.6,2.2,0.6,2.8-1.4c1.7-5.8,3.4-11.7,5-17.5c0.6-2,0.6-2-1.5-2.6
		c-30.1-8.7-60.3-17.4-90.4-26.1C690.9,231.1,690.5,231,690.2,230.8z"/>
	<path fill="#A3CEB5" d="M595.5,738.7c0-4.5-1.4-8.9-4-12.8c-1.2-1.8-1.2-1.8-2.9-0.7c-9.8,6.3-18.8,13.5-26.6,22.2
		c-0.4,0.4-0.7,0.9-1.2,1.2c-0.6,0.4-1.4,0.5-2-0.1c-0.5-0.5-0.5-1.2-0.2-1.8c0.3-0.5,0.8-1,1.2-1.5c7.6-8.5,16.5-15.6,26-21.8
		c0.5-0.3,0.9-0.6,1.4-0.9c0.7-0.4,0.8-0.8,0.2-1.5c-3.7-3.4-7.9-5.7-12.9-6.4c-6.9-0.9-12.9,1.4-18.2,5.8
		c-6.6,5.5-10.7,12.5-12.2,20.9c-1.5,8.3-3.5,16.4-6.7,24.2c-0.6,1.4-0.5,1.5,1,1.2c5.9-1,11.9-1.8,17.9-1.8c3.4,0,6.9,0,10.3-0.2
		c8.2-0.5,15.3-3.7,21.3-9.3C592.7,751,595.5,745.4,595.5,738.7z"/>
	<path fill="#FFFFFF" d="M528.9,459c-1-0.4-1.3,0.2-1.5,0.8c-1.1,4.4-2.1,8.9-3.2,13.3c-0.2,0.9,0.2,1.2,0.9,1.4
		c0.4,0.1,0.8,0.2,1.2,0.3c30.7,7.5,61.4,15,92.2,22.4c9.2,2.2,18.5,4.5,27.7,6.7c2.2,0.5,2.2,0.5,2.7-1.6c0.8-3.4,1.7-6.8,2.5-10.2
		c0.9-3.8,1.4-3-2.5-3.9c-35.4-8.6-70.8-17.2-106.1-25.8C538.1,461.2,533.4,460.1,528.9,459z"/>
	<path fill="#A3CEB5" d="M932.3,697.3c-5.5,0-9.5,1.4-13.2,3.9c-3,2.1-2.3,1.7-0.1,3.4c8.6,6.8,16.5,14.4,23.1,23.3
		c1.1,1.5,1.2,2.3,0.5,3c-0.8,0.7-1.7,0.4-2.9-1.1c-6.6-8.9-14.6-16.5-23.3-23.3c-1.8-1.4-1.8-1.4-3.1,0.4c-7,8.9-6.4,20.4,1.6,28.8
		c5.9,6.1,13.1,9.6,21.6,10.3c7.3,0.6,14.6,1.4,21.8,3.3c1.1,0.3,2.5,1.2,3.1,0.6c0.8-0.8-0.2-2.2-0.5-3.3
		c-2.1-7.3-2.9-14.9-3.8-22.4c-0.9-7.8-4.3-14.3-9.8-19.8C942.7,699.9,937.5,697.4,932.3,697.3z"/>
	<path fill="#CCD6DA" d="M793.1,576.5c-0.2-0.4-0.5-0.9-0.8-1.4c-2.3-4.2-4.5-8.5-6.5-12.8c-1.3-2.9-0.8-2.7-3.7-1.2
		c-11.3,5.7-22.6,11.5-33.9,17.3c-10.6,5.4-21.2,10.8-31.8,16.2c-1.9,1-1.9,1-1,3c2,4.3,4.3,8.4,6.7,12.4c1.5,2.5,1.5,2.5,4.1,1.2
		c21.6-11,43.3-22,64.9-33c0.5-0.3,1-0.5,1.5-0.8C793,577.2,793.1,577,793.1,576.5z"/>
	<path fill="#FFFFFF" d="M758.1,702.4c0-7.9,0-15.8,0-23.8c0-1.9,0-2-2-2c-5.7,0-11.3-0.4-17-1.3c-2.6-0.4-2.6-0.4-2.6,2.3
		c0,13.7,0,27.4,0,41c0,2.5,0,5,0,7.4c0,1.8,0,1.8,1.9,1.8c4.1,0,8.2,0,12.2,0c2,0,4,0,6,0c1,0,1.5-0.4,1.4-1.4c0-0.6,0-1.1,0-1.7
		C758.1,717.4,758.1,709.9,758.1,702.4z"/>
	<path fill="#7DA4EC" d="M711.1,528.8c20.3,0,40.6,0,60.9,0c0.7,0,1.4,0,2.2,0c0.8,0,1.2-0.3,1-1.2c-0.3-1.7-0.6-3.3-0.8-5
		c-0.3-2.5-0.3-2.5-2.9-2.6c-0.2,0-0.3,0-0.5,0c-40.3,0-80.6,0-120.9,0c-0.6,0-1.1,0-1.7,0c-1-0.1-1.5,0.3-1.4,1.4
		c0,1.4,0,2.9,0,4.3c0,3.3-0.2,3,2.9,3C670.4,528.8,690.8,528.8,711.1,528.8z"/>
	<path fill="#E07050" d="M770.5,706.9c0-9.1,0-18.2,0-27.4c0-0.6,0-1.1,0-1.7c0.1-1-0.4-1.3-1.3-1.2c-2.2,0-4.5,0-6.7,0
		c-0.9,0-1.3,0.4-1.3,1.3c0,0.7,0,1.4,0,2.2c0,15.8,0,31.7,0,47.5c0,0.7,0,1.4,0,2.2c0,0.9-0.4,1.3-1.3,1.3c-0.6,0-1.3,0-1.9,0
		c-12.1,0-24.2,0-36.2,0c-1.1,0-2.2,0-3.3,0.4c-1.8,0.8-3.1,2.6-3,4.5c0.1,2,1.6,3.8,3.6,4.2c0.9,0.2,1.7,0.2,2.6,0.2
		c14.2,0,28.3,0,42.5,0c0.7,0,1.4,0,2.2-0.1c2.3-0.3,3.9-1.9,4.1-4.3c0.1-0.7,0-1.4,0-2.2C770.5,724.9,770.5,715.9,770.5,706.9z"/>
	<path fill="#EBBE62" d="M622.6,367.6c1.5,0,3,0,4.6,0c5.1,0,10.2,0,15.3,0c1.7,0,1.7,0,1.8-1.7c0-0.2,0-0.3,0-0.5
		c0-9.5,0.1-19,0.1-28.5c0-2.4,0-2.3-2.4-2.3c-1.2,0-1.9,0.3-1.7,1.6c0,0.5,0,1-0.1,1.4c-0.5,5-4,8.9-8.8,9.8c-5,0.9-9.8-1.6-12-6.3
		c-0.2-0.4-0.3-0.7-0.4-1.1c-0.2-0.6-0.6-0.7-1.1-0.4c-0.5,0.3-1,0.6-1.4,0.9c-8.9,6.1-13.9,14.6-15.2,25.2
		c-0.2,1.8-0.2,1.9,1.7,1.9C609.5,367.6,616,367.6,622.6,367.6z"/>
	<path fill="#ACDCF6" d="M680.7,263.3c-0.6-0.2-0.9,0.2-1.1,0.9c-0.6,1.9-1.1,3.8-1.7,5.8c-0.7,2.4-0.7,2.4,1.8,3.1
		c25.2,7.3,50.5,14.6,75.7,21.9c4.8,1.4,9.7,2.8,14.5,4.2c1.6,0.5,1.7,0.4,2.2-1.2c0.7-2.2,1.3-4.5,1.9-6.7c0.2-0.7,0-1.1-0.6-1.2
		c-0.5-0.1-0.9-0.3-1.4-0.4c-30-8.7-60-17.4-90-26.1C681.7,263.6,681.4,263.5,680.7,263.3z"/>
	<path fill="#151D38" d="M776.5,283.1c-0.2-1.2-1.3-1.1-2-1.3c-30.1-8.7-60.1-17.4-90.2-26.1c-2-0.6-2-0.6-2.6,1.4
		c-0.9,3.1-0.9,3.1,2.1,4c25.8,7.5,51.6,14.9,77.3,22.4c4.2,1.2,8.4,2.4,12.7,3.6c0.5,0.2,1.3,0.7,1.6-0.3
		C775.8,285.6,776.1,284.4,776.5,283.1z"/>
	<path fill="#E07050" d="M724.3,700c0,8.3,0,16.6,0,24.9c0,0.6,0,1.3,0,1.9c0,0.8,0.4,1.2,1.2,1.2c2.2,0,4.5,0,6.7,0
		c1.1,0,1.4-0.5,1.3-1.5c0-0.5,0-1,0-1.4c0-16,0-32,0-48c0-0.5,0-1,0-1.4c0.1-1-0.4-1.4-1.3-1.6c-2.1-0.5-4.2-1-6.3-1.6
		c-1.5-0.4-1.6-0.3-1.7,1.3c0,0.6,0,1.1,0,1.7C724.3,683.7,724.3,691.8,724.3,700z"/>
	<path fill="#ACDCF6" d="M770.6,303.4c0.1-0.6-0.1-0.9-0.7-1.1c-0.5-0.1-0.9-0.3-1.4-0.4c-37.1-10.7-74.3-21.5-111.4-32.2
		c-2.5-0.7-5.1-1.5-7.6-2.2c-0.5-0.1-0.9-0.3-1.3,0.2c-1.1,1.5-0.7,2.8,1.1,3.4c0.2,0.1,0.5,0.1,0.7,0.2c9.6,2.8,19.2,5.6,28.8,8.3
		c29.7,8.6,59.4,17.2,89.1,25.7C769.8,305.9,770.5,305.4,770.6,303.4z"/>
	<path fill="#EBBE62" d="M529.8,453.2c-0.8-0.2-0.9,0.5-1,1c-0.1,0.6-0.6,1.3,0.3,1.7c0.5,0.2,1.1,0.3,1.6,0.5
		c39.8,9.7,79.6,19.3,119.4,29c0.5,0.1,1.1,0.3,1.6,0.4c0.6,0.1,1,0,1.2-0.7c0.5-1.5,0.4-1.7-1.2-2.1c-4.3-1.1-8.7-2.1-13-3.2
		c-35.8-8.7-71.5-17.4-107.3-26.1C530.9,453.5,530.4,453.3,529.8,453.2z"/>
	<path fill="#E07050" d="M697.8,731c-4.5,0-8.9,0-13.4,0c-1,0-1.9,0-2.8,0.4c-1.8,0.7-3.1,2.6-3.1,4.4c0.1,2,1.5,3.8,3.5,4.3
		c0.9,0.2,1.7,0.2,2.6,0.2c8.8,0,17.6,0,26.3,0c0.4,0,0.8,0,1.2,0c1.3-0.1,1.4-0.2,0.9-1.4c-0.9-2.2-0.9-4.3,0-6.5
		c0.6-1.4,0.5-1.4-0.9-1.4C707.4,731,702.6,731,697.8,731z"/>
	<path fill="#EBBE62" d="M635,334.6c-4.2,0.1-8.8,1-11.9,2.3c-1.6,0.6-1.7,0.9-1.1,2.5c1.3,3.4,4.9,5.5,8.4,5
		c3.8-0.6,6.6-3.7,6.8-7.6C637.3,334.6,637.2,334.5,635,334.6z"/>
	<path fill="#EBBE62" d="M644,377.8c0-1.9,0-3.8,0-5.7c0-1-0.3-1.5-1.3-1.5c-2.5,0-4.9,0-7.4,0c-1,0-1.1,0.4-0.6,1.2
		c2.7,4,5.5,8,8.2,12.1c0.2,0.3,0.4,0.6,0.7,0.5c0.5-0.1,0.4-0.6,0.4-1C644,381.5,644,379.6,644,377.8z"/>
	<path fill="#EBBE62" d="M628.2,370.6c-0.4,0-0.7,0-0.9,0c-1.9,0-2,0.2-1.1,1.9c2.4,4.9,6.2,8.5,11.3,10.6c0.3,0.1,0.6,0.4,0.9,0.2
		c0.4-0.4-0.1-0.7-0.2-1c-2.2-3.3-4.5-6.6-6.7-9.9C630.5,371,629.6,370.3,628.2,370.6z"/>
	<path fill="#7DA4EC" d="M405.3,560.6c0.6-1,0.8-2.1,0.9-3.2c3-22.1,21.4-40.4,43.6-43.3c27.8-3.6,52.8,14.8,57.6,42.4
		c0.1,0.3,0.1,0.6,0.1,1c0.1,0.8,0.5,0.9,1.1,0.6c0.4-0.2,0.7-0.4,1-0.6c19.2-10.7,42.5,0.2,46.5,21.8c0.5,2.8,0.6,5.6,0.3,8.4
		c-0.1,0.6-0.1,1.3-0.7,1.7c-0.9,0.6-2.1,0.1-2.2-0.9c-0.1-0.9,0-1.8,0-2.6c0.6-13.7-9-25.8-22.1-28.7c-8.2-1.8-15.7-0.2-22.6,4.5
		c-3.3,2.3-3.7,2.1-4.2-2c-1.8-14.8-8.8-26.4-21.1-34.7c-28.6-19.3-67.7-2.8-74.2,31.1c-0.5,2.5-0.8,5.1-0.9,7.6
		c0,0.9,0.2,2-0.8,2.6c-1.1,0.6-1.8-0.3-2.6-0.8C405.3,563.8,405.3,562.2,405.3,560.6z"/>
	<path fill="#7DA4EC" d="M509,209.2c2.4,0.4,4.9,0.7,7.3,1.3c21.2,5.6,34.2,19.1,38.9,40.4c0.7,3,0.6,3,3.4,1.6
		c10.9-5.4,21.7-5.1,31.9,1.5c10.1,6.6,14.7,16.3,14.1,28.4c0,0.6-0.1,1.1-0.2,1.7c-0.2,0.7-0.8,1-1.5,0.9c-0.7-0.1-1.2-0.5-1.3-1.2
		c0-0.9,0-1.8,0-2.6c0.4-13.7-8.6-25.5-21.9-28.6c-8.2-1.9-15.9-0.4-22.8,4.4c-3.2,2.2-3.7,2-4.2-1.8c-2.3-20.2-16.2-36.3-35.7-41.5
		c-27.9-7.4-56.4,11.7-60,40.3c-0.2,1.7-0.4,3.5-0.4,5.3c0,0.6,0,1.1-0.2,1.6c-0.2,0.6-0.8,1-1.5,0.9c-0.6-0.1-1-0.4-1.2-1.1
		c-0.1-0.5-0.1-1-0.1-1.4c0.1-23.7,18-45,41.3-49.3c1.8-0.3,3.7-0.2,5.4-0.9C503.2,209.2,506.1,209.2,509,209.2z"/>
	<path fill="#7DA4EC" d="M921.7,376.6c21.9,0.1,38.5,12.2,44.2,30.2c0.2,0.7,0.4,1.4,0.5,2.1c0.1,0.7-0.2,1.3-0.9,1.5
		c-0.8,0.2-1.5,0.1-1.8-0.7c-0.3-0.6-0.4-1.2-0.6-1.8c-5.8-17.9-22.6-29.3-41.4-28.2c-19.5,1.2-35.7,17-37.5,36.4
		c-0.4,4.5-0.1,8.9,0.9,13.3c0,0.2,0.1,0.3,0.1,0.5c0.1,0.9,0.5,1.8-0.4,2.4c-1,0.7-1.8,0-2.5-0.7c-3.7-3.2-8-5-12.9-5
		c-12.2,0-21.3,11-19.1,23.1c0.1,0.5,0.3,1.1,0.3,1.6c0,0.8-0.5,1.4-1.3,1.5c-0.7,0.1-1.3-0.2-1.5-0.9c-0.6-1.5-0.8-3.1-0.9-4.7
		c-0.9-12.1,8.7-23,20.9-23.6c4.2-0.2,8.1,0.5,11.8,2.5c0.5,0.3,1,0.9,1.5,0.6c0.6-0.4,0.2-1.2,0.1-1.8c-1-8.6,0.4-16.8,4.4-24.4
		C893.9,384.9,907.2,377.3,921.7,376.6z"/>
	<path fill="#151D38" d="M698.7,766.6c-24.6,0-49.2,0-73.9,0c-0.8,0-1.6,0-2.4-0.1c-0.7-0.1-1.1-0.6-1.2-1.3c0-0.7,0.4-1.3,1-1.4
		c0.7-0.2,1.4-0.1,2.1-0.1c10.3,0,20.6,0,30.9,0c39,0,78,0,117,0c0.8,0,1.6,0,2.4,0.1c0.9,0.1,1.5,0.7,1.4,1.6
		c-0.1,0.8-0.6,1.2-1.5,1.3c-0.7,0-1.4,0-2.2,0C747.9,766.6,723.3,766.6,698.7,766.6z"/>
	<path fill="#151D38" d="M848.8,766.6c-10.2,0-20.5,0-30.7,0c-0.7,0-1.4,0-2.2-0.1c-0.7-0.1-1.1-0.6-1.2-1.3c-0.1-0.7,0.3-1.3,1-1.5
		c0.5-0.2,1.1-0.1,1.7-0.1c21.1,0,42.2,0,63.4,0c2.1,0,2.7,0.8,2.6,1.7c-0.1,1-0.7,1.3-2.7,1.3C870.1,766.6,859.4,766.6,848.8,766.6
		z"/>
	<path fill="#151D38" d="M926,766.6c-3.9,0-7.8,0-11.7,0c-0.5,0-1,0-1.4,0c-0.9,0-1.6-0.3-1.7-1.3c-0.1-1.1,0.6-1.6,1.6-1.7
		c0.4,0,0.8,0,1.2,0c8,0,16,0,23.9,0c0.6,0,1.1,0,1.7,0.1c0.8,0.2,1.3,0.7,1.2,1.5c0,0.8-0.5,1.3-1.4,1.3c-0.6,0-1.1,0-1.7,0
		C933.8,766.6,929.9,766.6,926,766.6z"/>
	<path fill="#151D38" d="M689.5,347.5c-7,0-12.6-5.7-12.5-12.7c0.1-7,5.8-12.6,12.8-12.5c7,0.1,12.6,5.8,12.5,12.7
		C702.2,342,696.6,347.5,689.5,347.5z"/>
</g>
</svg>
