<?xml version="1.0" encoding="UTF-8"?>
<svg width="355px" height="641px" viewBox="0 0 355 641" version="1.1" xmlns="http://www.w3.org/2000/svg" xmlns:xlink="http://www.w3.org/1999/xlink">
    <!-- Generator: Sketch 42 (36781) - http://www.bohemiancoding.com/sketch -->
    <title>music_note</title>
    <desc>Created with Sketch.</desc>
    <defs></defs>
    <g id="Page-1" stroke="none" stroke-width="1" fill="none" fill-rule="evenodd">
        <g id="music_note" fill-rule="nonzero" fill="#4990E2">
            <g id="Group" transform="translate(176.500000, 332.800000) scale(-1, 1) rotate(-180.000000) translate(-176.500000, -332.800000) translate(18.000000, 36.800000)">
                <path d="M155.5,364.1 L155.5,136 L148,138.4 C111.7,149.9 75.3,142.6 43.8,117.3 C24.8,102.1 10.8,82.5 2.9,60.3 C0.6,53.5 0.1,50.7 0.1,41.8 C-2.39114284e-14,32.9 0.4,30.5 2.4,26.1 C11.5,5.8 48.2,-4.8 85,2.3 C129.7,10.8 160.2,40.8 170.6,86.3 L172.9,96.3 L173.2,271.6 C173.4,367.9 173.8,446.8 174.1,446.8 C175.4,446.8 197.9,436 206.8,431.1 C251,406.6 277.9,377.9 290.7,341.5 C300.5,313.5 301.3,279.8 292.8,241.8 C287.9,219.5 276.3,186.6 264.5,161.4 C261.7,155.4 259.6,150.4 259.8,150.2 C260.3,149.7 271.4,165 278.8,176.3 C292.2,197 301,215 308.1,236.5 C314.8,256.8 316.9,269.8 316.9,291.3 C316.9,312.4 315.3,323.1 309.4,341.1 C300,369.9 287.4,390.2 259.6,421.7 C220.7,465.6 189,516.2 163.3,575.3 C159.5,584.1 156.1,591.5 155.9,591.7 C155.7,591.9 155.5,489.5 155.5,364.1 Z" id="Shape"></path>
            </g>
        </g>
    </g>
</svg>